<svg width="45" height="48" viewBox="0 0 45 48" fill="none" xmlns="http://www.w3.org/2000/svg">
<path fill-rule="evenodd" clip-rule="evenodd" d="M44.3982 45.7143C44.3982 46.9767 43.3518 48 42.0606 48H3.09949C1.80829 48 0.761719 46.9767 0.761719 45.7143V2.28571C0.761719 1.02324 1.80829 0 3.09949 0H42.0606C43.3518 0 44.3982 1.02324 44.3982 2.28571V45.7143Z" fill="#9F224E"/>
<path fill-rule="evenodd" clip-rule="evenodd" d="M14.7871 18.366V19.1278V20.5718H17.5106H25.6963V27.4289H17.5106H14.7871V29.0326V29.7946V31.3183V33.6041V35.8097H17.5106H38.1638V41.905H16.5715H6.995V6.09552H16.5715H38.1638V12.1908H17.5106H14.7871V14.5565V16.8422V18.366ZM17.1249 14.4765H38.3897C39.6803 14.4765 40.5016 13.5325 40.5016 12.2708V6.17553C40.5016 4.91381 39.6803 3.80981 38.3897 3.80981H16.5715H7.22094C5.92974 3.80981 4.65723 4.91381 4.65723 6.17553V41.9851C4.65723 43.2468 5.92974 44.1907 7.22094 44.1907H16.5715H38.3897C39.6803 44.1907 40.5016 43.2468 40.5016 41.9851V35.8898C40.5016 34.6281 39.6803 33.5241 38.3897 33.5241H17.1249V31.3183V29.7146H25.9223C27.2126 29.7146 28.0339 28.7705 28.0339 27.5088V20.6517C28.0339 19.39 27.2126 18.286 25.9223 18.286H17.1249V16.8422V14.4765Z" fill="white"/>
</svg>
